<svg xmlns="http://www.w3.org/2000/svg" width="94" height="41.578" viewBox="0 0 94 41.578">
  <g id="Grupo_3586" data-name="Grupo 3586" transform="translate(-250 -63.932)">
    <path id="Trazado_570" data-name="Trazado 570" d="M912.259-76.025A7.022,7.022,0,0,1,905.2-83.1a7.013,7.013,0,0,1,7.061-7.017A7.16,7.16,0,0,1,919.45-83.1,7.17,7.17,0,0,1,912.259-76.025Zm-.06-18.354a11.288,11.288,0,0,0-11.3,10.827v20.063a2.391,2.391,0,0,0,2.392,2.392,2.349,2.349,0,0,0,2.375-2.418v-10.91a11.535,11.535,0,0,0,6.426,2.284,11.17,11.17,0,0,0,11.454-11.022A11.126,11.126,0,0,0,912.2-94.379Z" transform="translate(-626.667 166.606)" fill="#007934" fill-rule="evenodd"/>
    <path id="Trazado_571" data-name="Trazado 571" d="M857.53-80.345a6.9,6.9,0,0,0,6.227,4.179,8.207,8.207,0,0,0,4.806-1.434c2.449-1.7,4.516,1.379,2.657,2.946a12.373,12.373,0,0,1-7.548,2.515,10.933,10.933,0,0,1-10.787-11.184,11.107,11.107,0,0,1,10.81-11.056,10.689,10.689,0,0,1,9.508,5.4c1.583,2.809,2.025,7.164-2.175,7.182H858.286c-1.2,0-.961.851-.756,1.456m6.316-10.133A7.007,7.007,0,0,0,857.7-86.77a.811.811,0,0,0,.792,1.22h10.668c.71,0,.834-.724.5-1.362A6.49,6.49,0,0,0,863.846-90.478Z" transform="translate(-602.885 166.608)" fill="#007934" fill-rule="evenodd"/>
    <path id="Trazado_572" data-name="Trazado 572" d="M1023.084-106.665a3.771,3.771,0,0,0,3.773,3.772,3.771,3.771,0,0,0,3.771-3.772,3.771,3.771,0,0,0-3.771-3.771,3.772,3.772,0,0,0-3.773,3.771m-.378,0a4.145,4.145,0,0,1,4.146-4.144A4.144,4.144,0,0,1,1031-106.67a4.146,4.146,0,0,1-4.144,4.146A4.147,4.147,0,0,1,1022.706-106.67Z" transform="translate(-686.996 174.746)" fill="#007934" fill-rule="evenodd"/>
    <path id="Trazado_573" data-name="Trazado 573" d="M1028.025-102.565h.559v-1.811h.619l1.046,1.811h.7l-1.164-1.874a1.1,1.1,0,0,0,1.007-1.085c0-.517-.267-1.15-1.316-1.15h-1.447Zm.559-3.621h.731c.44,0,.881.1.881.662s-.441.66-.881.66h-.731Z" transform="translate(-689.63 172.696)" fill="#007934" fill-rule="evenodd"/>
    <path id="Trazado_574" data-name="Trazado 574" d="M966.514-78.892V-84.1a5.208,5.208,0,0,0-5.207-5.212A5.209,5.209,0,0,0,956.1-84.1v5.2a2.461,2.461,0,0,1-2.46,2.452,2.414,2.414,0,0,1-2.453-2.452l.024-4.834c0-7.166,5.292-10.64,10.053-10.64a9.589,9.589,0,0,1,7.643,3.652,9.845,9.845,0,0,1,7.66-3.65c5.978,0,10.424,5.148,10.657,11.112.209,5.351-1.94,14.282-13.362,18.755a2.427,2.427,0,0,1-3.191-2.441,2.549,2.549,0,0,1,1.991-2.354,13.294,13.294,0,0,0,9.94-14.31c-.481-3.262-2.407-5.645-5.91-5.7A5.213,5.213,0,0,0,971.3-84.1v5.214a2.387,2.387,0,0,1-2.4,2.44,2.356,2.356,0,0,1-2.389-2.441" transform="translate(-651.569 166.605)" fill="#7ad400" fill-rule="evenodd"/>
  </g>
</svg>
